<?xml version="1.0" encoding="UTF-8"?>
<svg version="1.1" xmlns="http://www.w3.org/2000/svg" width="1024" height="1024">
<path d="M0 0 C337.92 0 675.84 0 1024 0 C1024 337.92 1024 675.84 1024 1024 C686.08 1024 348.16 1024 0 1024 C0 686.08 0 348.16 0 0 Z " fill="#001B4B" transform="translate(0,0)"/>
<path d="M0 0 C4.01964878 6.89082648 1.01477818 15.36681947 -0.671875 22.68359375 C-0.92783951 23.82703247 -1.18380402 24.97047119 -1.44752502 26.14855957 C-2.00146189 28.62017591 -2.55909363 31.09096645 -3.12002563 33.56100464 C-4.47264757 39.51962441 -5.80269764 45.48324584 -7.13208961 51.44708443 C-7.43843873 52.82098542 -7.74509057 54.19481895 -8.05203819 55.56858635 C-11.3500528 70.33166469 -14.47234272 85.12951732 -17.5625 99.9375 C-21.00279994 116.39069445 -24.49040331 132.82836487 -28.17089844 149.22949219 C-28.48768013 150.64126484 -28.80441086 152.05304893 -29.12109375 153.46484375 C-29.2823172 154.18350616 -29.44354065 154.90216858 -29.60964966 155.64260864 C-31.95122617 166.10355243 -34.23257789 176.57779864 -36.51831055 187.05105591 C-37.30421092 190.64954587 -38.0924229 194.24752395 -38.88085938 197.84545898 C-41.12910465 208.12412503 -43.35754962 218.40376726 -45.43359375 228.71875 C-45.75051076 230.27776263 -46.06748408 231.83676381 -46.38452148 233.39575195 C-46.9468272 236.1646951 -47.48938052 238.93645993 -48.01977539 241.71166992 C-48.26074951 242.90381104 -48.50172363 244.09595215 -48.75 245.32421875 C-49.04390625 246.8414856 -49.04390625 246.8414856 -49.34375 248.3894043 C-50.42868703 251.5147361 -51.67382822 252.94850619 -54.25 255 C-58.98556541 256.24211552 -60.79856664 256.68356469 -65.27636719 254.57470703 C-70.63563682 251.4220475 -74.7769361 246.88167708 -79.12109375 242.4921875 C-80.043423 241.57035675 -80.96575226 240.648526 -81.91603088 239.69876099 C-83.85625732 237.75844534 -85.79125705 235.81311296 -87.72241211 233.86376953 C-90.20109334 231.36225982 -92.69085179 228.87212967 -95.18432522 226.38537407 C-97.5643184 224.00951401 -99.93622367 221.62566019 -102.30859375 219.2421875 C-103.2053331 218.34635956 -104.10207245 217.45053162 -105.02598572 216.52755737 C-106.25340233 215.28584274 -106.25340233 215.28584274 -107.50561523 214.01904297 C-108.23062729 213.28942352 -108.95563934 212.55980408 -109.70262146 211.80807495 C-111.25 210 -111.25 210 -111.25 208 C-112.24 207.67 -113.23 207.34 -114.25 207 C-115.828125 205.36328125 -115.828125 205.36328125 -117.5 203.3125 C-119.76791142 200.53160861 -122.15166405 198.17138535 -124.88183594 195.85620117 C-125.51248962 195.32008713 -126.14314331 194.78397308 -126.79290771 194.23161316 C-127.27374817 193.82518082 -127.75458862 193.41874847 -128.25 193 C-128.89714966 193.64807145 -129.54429932 194.2961429 -130.21105957 194.96385288 C-145.97506648 210.74996696 -161.7418581 226.53329498 -177.51173401 242.31354618 C-185.13792992 249.94489317 -192.76318877 257.57717204 -200.38623047 265.21166992 C-207.03230583 271.86772846 -213.68015118 278.52201325 -220.33010674 285.17419523 C-223.84945576 288.69484519 -227.36792652 292.21636269 -230.88427734 295.7400074 C-234.19805945 299.06060707 -237.51421393 302.37881926 -240.83215523 305.69526291 C-242.04554295 306.90892439 -243.25808235 308.12343472 -244.46967888 309.33888435 C-249.95186228 314.83763686 -255.43282948 320.26744337 -261.33942604 325.31569195 C-265.23751569 328.75213771 -268.85909666 332.47957305 -272.52416992 336.16064453 C-273.41463516 337.05096375 -274.3051004 337.94128296 -275.22254944 338.85858154 C-277.64193278 341.27768038 -280.05824016 343.6998299 -282.47397017 346.12257624 C-285.01357352 348.66848045 -287.55605663 351.21150563 -290.09822083 353.75485229 C-294.90704025 358.56676884 -299.71330839 363.38122518 -304.51864177 368.19662273 C-309.97317382 373.66233247 -315.43054314 379.12520548 -320.88815916 384.58783555 C-330.22041859 393.92876404 -339.5505664 403.2717963 -348.87832642 412.61721802 C-350.36899087 414.11068233 -351.85975176 415.60405038 -353.35063744 417.09729385 C-354.51070831 418.25940688 -355.67043431 419.42186446 -356.8295536 420.58492661 C-362.61892197 426.38917308 -368.05280455 430.72643959 -376.55078125 431.1015625 C-384.94104122 430.49294261 -391.37582962 426.49434695 -397.18530273 420.54571533 C-397.72708349 420.00735227 -398.26886425 419.46898921 -398.82706261 418.91431212 C-400.62219287 417.12571866 -402.40273948 415.32330711 -404.18359375 413.52050781 C-405.47453796 412.22843422 -406.76636577 410.93724294 -408.05900574 409.64686584 C-411.55296967 406.15404643 -415.0344895 402.64905933 -418.51386261 399.14171314 C-422.15684138 395.47367717 -425.81120122 391.81701546 -429.46435547 388.15911865 C-436.374716 381.23634108 -443.2748193 374.3034332 -450.17127228 367.36680388 C-458.02553668 359.46778234 -465.89120395 351.58015751 -473.7578373 343.69345713 C-489.93458797 327.47493092 -506.09700641 311.242185 -522.25 295 C-526.23395372 296.841521 -528.95324472 299.44801504 -531.99658203 302.55126953 C-532.55966064 303.11726868 -533.12273926 303.68326782 -533.70288086 304.26641846 C-534.92187048 305.49300588 -536.13854444 306.72189802 -537.35315323 307.95282364 C-539.27319636 309.89840095 -541.19942545 311.83765507 -543.12741089 313.77536011 C-547.21555724 317.88635179 -551.2958125 322.00512116 -555.375 326.125 C-560.10822622 330.90535334 -564.84459243 335.68250292 -569.58944321 340.45132065 C-571.4913995 342.36628723 -573.38725786 344.28715638 -575.2829895 346.20828247 C-576.44243387 347.37498787 -577.60215769 348.54141565 -578.76220703 349.70751953 C-579.29107513 350.24672028 -579.81994324 350.78592102 -580.36483765 351.34146118 C-581.62250557 352.59949472 -582.93171848 353.80563372 -584.25 355 C-584.91 355 -585.57 355 -586.25 355 C-586.4665625 355.55429687 -586.683125 356.10859375 -586.90625 356.6796875 C-588.68067224 359.74366079 -591.11712563 361.82036196 -593.75 364.125 C-599.4513549 369.22680252 -604.88155929 374.54782278 -610.25 380 C-612.69493642 382.45218068 -615.14401029 384.8967995 -617.625 387.3125 C-619.74863544 389.48669819 -621.71685599 391.69153131 -623.6875 394 C-626.61954749 397.39433575 -629.80185573 400.12654644 -633.25 403 C-634.27059428 404.13793579 -635.26996049 405.29507399 -636.25390625 406.46484375 C-640.5261331 411.40330918 -645.11310321 416.01381744 -649.73803711 420.6184082 C-651.18524385 422.06025221 -652.62702026 423.50737116 -654.06835938 424.95507812 C-655.01270044 425.89875823 -655.95735174 426.842128 -656.90234375 427.78515625 C-657.73757568 428.61926025 -658.57280762 429.45336426 -659.43334961 430.31274414 C-661.59611286 432.37615188 -663.77925607 434.33661005 -666.04272461 436.28393555 C-670.55444836 440.20219019 -674.73139216 444.40785076 -678.9140625 448.671875 C-680.54658669 450.32189989 -682.17940795 451.9716309 -683.8125 453.62109375 C-686.35456311 456.19419368 -688.89420424 458.76955307 -691.42871094 461.35009766 C-693.89623612 463.85996949 -696.37312786 466.36028176 -698.8515625 468.859375 C-699.98146103 470.0172049 -699.98146103 470.0172049 -701.13418579 471.19842529 C-706.98286731 477.07538282 -711.55537744 480.42365592 -720.125 480.5 C-721.85363281 480.54640625 -721.85363281 480.54640625 -723.6171875 480.59375 C-732.70301292 479.10875488 -738.89760447 471.78162723 -745.11328125 465.5 C-746.02708054 464.58669922 -746.94087982 463.67339844 -747.88237 462.73242188 C-749.80403212 460.81067064 -751.72047821 458.8839158 -753.63305664 456.953125 C-756.07669477 454.48672164 -758.53133941 452.03163209 -760.98974323 449.57995605 C-763.34866968 447.2251831 -765.69947888 444.86238648 -768.05078125 442.5 C-769.36795891 441.18418945 -769.36795891 441.18418945 -770.71174622 439.84179688 C-771.9339814 438.60526367 -771.9339814 438.60526367 -773.1809082 437.34375 C-773.89624222 436.62380859 -774.61157623 435.90386719 -775.34858704 435.16210938 C-780.21090809 429.63313164 -781.65676488 424.56536424 -781.515625 417.35546875 C-780.02366651 404.12530742 -764.57188404 393.17111503 -755.62109375 384.23828125 C-754.41986296 383.03637473 -753.21878047 381.83431999 -752.01783752 380.63212585 C-749.51749765 378.13032278 -747.0153868 375.63030871 -744.51196289 373.1315918 C-741.32254152 369.9478793 -738.13764897 366.75968001 -734.95407009 363.57012653 C-732.48074322 361.0931672 -730.00501625 358.61861774 -727.52858162 356.14476585 C-726.35382014 354.97066559 -725.17978469 353.79583837 -724.00652885 352.62023354 C-722.36151345 350.97264568 -720.71326996 349.32835189 -719.06420898 347.68481445 C-717.66597145 346.28777031 -717.66597145 346.28777031 -716.23948669 344.86250305 C-714.06897365 342.74064946 -711.81758694 340.74563389 -709.5153265 338.76784992 C-705.5180375 335.2803238 -701.74607726 331.62075742 -698.01528931 327.85189819 C-697.33355632 327.1674918 -696.65182334 326.48308542 -695.94943178 325.77793944 C-693.68734882 323.50587242 -691.42891155 321.23021662 -689.17041016 318.95458984 C-687.54041205 317.31611593 -685.91015096 315.6779036 -684.27964783 314.03993225 C-680.77922982 310.52284438 -677.28019473 307.00438845 -673.78209305 303.4849968 C-668.24677656 297.91697192 -662.70542601 292.35497919 -657.16268921 286.79434204 C-656.2162793 285.84482197 -655.26987315 284.89529814 -654.32347071 283.94577062 C-652.88969409 282.50726873 -651.45591396 281.06877034 -650.02211911 279.63028663 C-644.6292587 274.21973826 -639.23710291 268.80848821 -633.84570312 263.39648438 C-633.35341757 262.90232177 -632.86113202 262.40815917 -632.35392873 261.89902194 C-624.37257876 253.88676593 -616.39864034 245.86716836 -608.42694075 237.84531228 C-600.22519782 229.59240748 -592.0136871 221.34931236 -583.79402578 213.11425364 C-579.18609705 208.49695918 -574.58285967 203.87519415 -569.99049759 199.24241257 C-565.67231309 194.8863277 -561.34256627 190.54207891 -557.00377083 186.2065258 C-555.41679301 184.61658296 -553.83408608 183.02236352 -552.25608253 181.42351341 C-550.09508241 179.23524713 -547.91901194 177.0631138 -545.73867798 174.89413452 C-545.12347499 174.2636852 -544.50827199 173.63323588 -543.87442648 172.98368204 C-538.30299257 167.49944224 -531.62799074 162.93778122 -523.625 162.5 C-516.12160122 162.61863081 -510.29859141 166.20101969 -505.23876953 171.40995789 C-504.41384774 172.22847149 -504.41384774 172.22847149 -503.57226086 173.06352073 C-501.74704096 174.88055669 -499.94018122 176.71478092 -498.1328125 178.54956055 C-496.82237894 179.86140556 -495.51084124 181.1721484 -494.19828796 182.48187256 C-490.64833709 186.03039171 -487.11398993 189.59409022 -483.58227921 193.1607511 C-479.88503544 196.88929844 -476.17358169 200.60364604 -472.46362305 204.3195343 C-465.44499479 211.35368914 -458.43920716 218.40048959 -451.43796253 225.45194227 C-443.46475681 233.48107802 -435.47731096 241.49598308 -427.48864746 249.50973451 C-411.05989031 265.99072302 -394.64906375 282.48946917 -378.25 299 C-373.23770953 294.7992669 -368.52882464 290.41991025 -363.91639709 285.78665161 C-363.21212867 285.08323761 -362.50786024 284.37982361 -361.78225034 283.65509403 C-359.43847354 281.31295571 -357.09827326 278.96727719 -354.75805664 276.62158203 C-353.07253137 274.93577451 -351.38678551 273.25018751 -349.70083618 271.56480408 C-345.60846728 267.47269197 -341.51839473 263.37829529 -337.42934073 259.28287096 C-332.66843295 254.51479552 -327.90468174 249.74956515 -323.14075964 244.9845017 C-314.64616119 236.48771824 -306.15379522 227.98870712 -297.6628418 219.48828125 C-289.41792438 211.23417547 -281.17195037 202.9811276 -272.92456055 194.72949219 C-272.41562337 194.22029228 -271.90668619 193.71109238 -271.38232667 193.18646218 C-268.82896216 190.63179257 -266.27557695 188.07714366 -263.72218144 185.52250504 C-242.56157641 164.35154454 -221.40463546 143.17692558 -200.25 122 C-201.2067722 120.87762097 -202.16441715 119.75598587 -203.12242985 118.63466549 C-203.65562464 118.00997527 -204.18881943 117.38528505 -204.73817164 116.74166483 C-206.46101889 114.75690086 -208.25840487 112.87778659 -210.12475586 111.02758789 C-211.17130592 109.98599266 -211.17130592 109.98599266 -212.23899841 108.9233551 C-212.97352737 108.19712448 -213.70805634 107.47089386 -214.46484375 106.72265625 C-215.62579308 105.56738686 -215.62579308 105.56738686 -216.81019592 104.38877869 C-220.09321733 101.12197146 -223.38217945 97.86116959 -226.6706543 94.59985352 C-229.08331531 92.20538862 -231.49288427 89.80784203 -233.90234375 87.41015625 C-235.00110085 86.32384666 -235.00110085 86.32384666 -236.12205505 85.21559143 C-240.16275207 81.19393883 -244.01552674 77.08066208 -247.71047974 72.73814392 C-249.17915776 71.07998206 -250.70213273 69.58327999 -252.33984375 68.09375 C-259.81133741 61.2884389 -259.81133741 61.2884389 -261.05859375 57.625 C-261.14791381 54.76675814 -260.74847812 52.64248503 -258.97729492 50.35961914 C-256.89062297 48.71712075 -255.33328149 48.29720541 -252.73828125 47.74609375 C-251.78010498 47.53718506 -250.82192871 47.32827637 -249.8347168 47.11303711 C-248.75488525 46.89010986 -247.67505371 46.66718262 -246.5625 46.4375 C-244.79869995 46.05960327 -244.79869995 46.05960327 -242.99926758 45.67407227 C-239.53368329 44.93580404 -236.06601712 44.20919618 -232.59680176 43.48828125 C-230.15485977 42.98020489 -227.71359039 42.46899672 -225.27246094 41.95703125 C-215.50708146 39.90964834 -205.73873663 37.87683643 -195.96875 35.8515625 C-186.17374365 33.82050342 -176.3827258 31.77083535 -166.59375 29.7109375 C-165.25172115 29.42860993 -163.9096903 29.14629182 -162.56765747 28.86398315 C-161.90151365 28.72385111 -161.23536983 28.58371906 -160.54903984 28.43934059 C-119.09359942 19.71879137 -119.09359942 19.71879137 -98.46932983 15.64950562 C-89.70348415 13.91816916 -80.9667252 12.08992286 -72.25 10.125 C-61.08080176 7.61654505 -49.90406612 5.14465562 -38.71020508 2.74847412 C-36.80136407 2.33776532 -34.89345224 1.92271024 -32.98657227 1.50299072 C-6.88203622 -4.23509921 -6.88203622 -4.23509921 0 0 Z " fill="#EF6B10" transform="translate(925.25,180)"/>
<path d="M0 0 C1.24243973 -0.01007584 1.24243973 -0.01007584 2.50997925 -0.02035522 C5.24125204 -0.03931362 7.97227883 -0.04325827 10.70361328 -0.04541016 C12.60783997 -0.0518394 14.51206566 -0.05856785 16.41629028 -0.06558228 C20.40580536 -0.0775495 24.39523387 -0.08126365 28.38476562 -0.08007812 C33.48808803 -0.07987493 38.59085363 -0.10718051 43.69404411 -0.14162254 C47.62666354 -0.1638976 51.55914906 -0.16791548 55.4918251 -0.16685867 C57.3728337 -0.16921358 59.25384605 -0.17803089 61.13479233 -0.19352341 C63.76994195 -0.21319651 66.40389212 -0.20734058 69.0390625 -0.1953125 C70.19577454 -0.21217102 70.19577454 -0.21217102 71.37585449 -0.22937012 C77.6891322 -0.1564212 81.94214516 1.73472254 86.60986328 6.14208984 C87.30982422 7.01994141 87.30982422 7.01994141 88.02392578 7.91552734 C88.50603516 8.50591797 88.98814453 9.09630859 89.48486328 9.70458984 C91.83712025 12.90934262 91.77578612 15.12722691 91.78035355 19.06402969 C91.78419469 20.30091703 91.78803584 21.53780436 91.79199338 22.81217313 C91.79121304 24.19739363 91.79033424 25.58261409 91.78936768 26.96783447 C91.79194984 28.42958936 91.79496258 29.89134353 91.79837108 31.35309672 C91.80646197 35.38455658 91.80823181 39.41599865 91.80896854 43.44746566 C91.8108155 47.78978566 91.81836104 52.13209636 91.82510376 56.47441101 C91.83870275 65.97645725 91.84471433 75.47849928 91.84911442 84.98055363 C91.85187438 90.91079104 91.85611129 96.84102682 91.86061859 102.77126312 C91.87281364 119.18173241 91.88311227 135.59220038 91.88649368 152.0026741 C91.88682303 153.57905767 91.88682303 153.57905767 91.88715903 155.18728738 C91.88748645 156.76750375 91.88748645 156.76750375 91.88782048 158.37964368 C91.88826395 160.51448902 91.88871052 162.64933435 91.88916016 164.78417969 C91.88938159 165.84314307 91.88960302 166.90210644 91.88983116 167.99315962 C91.89377964 185.15439317 91.91123414 202.31558427 91.93451968 219.47680143 C91.95821902 237.08474864 91.9706949 254.69267454 91.9718616 272.30063796 C91.9727792 282.19135711 91.97855268 292.08202097 91.99668121 301.97272491 C92.01206313 310.3947774 92.017214 318.8167575 92.00894311 327.23882136 C92.00502973 331.53724871 92.00599961 335.83553023 92.02000046 340.13393974 C92.03269835 344.06825853 92.03157826 348.00232129 92.01940975 351.93663952 C92.01744558 353.36063643 92.0205643 354.78465121 92.02925411 356.20862296 C92.04031559 358.14360586 92.03108552 360.07867292 92.02086258 362.01366043 C92.02145967 363.0887037 92.02205676 364.16374697 92.02267194 365.27136731 C91.35156571 370.69263271 88.92318152 374.52607862 84.83642578 378.04052734 C84.19060547 378.61287109 83.54478516 379.18521484 82.87939453 379.77490234 C77.858485 383.18665873 72.69791754 383.58859766 66.78271484 383.58105469 C66.01761597 383.58777191 65.25251709 383.59448914 64.4642334 383.60140991 C61.94760549 383.62032766 59.43124527 383.62431121 56.91455078 383.62646484 C55.15346164 383.63289809 53.39237356 383.63962684 51.63128662 383.64663696 C47.94280523 383.6585949 44.25441737 383.66231942 40.56591797 383.66113281 C35.86085577 383.66092994 31.1563997 383.68820597 26.45148087 383.72267723 C22.81383562 383.74501902 19.17633443 383.7489681 15.53862762 383.74791336 C13.80523342 383.75025937 12.07183463 383.75902602 10.33850861 383.77457809 C-10.15988692 383.94125119 -10.15988692 383.94125119 -17.27191162 377.56967163 C-22.11161668 372.50016803 -23.59909657 367.04751032 -23.60834312 360.09288979 C-23.61479202 358.86320524 -23.62124091 357.63352069 -23.62788522 356.36657298 C-23.62494325 355.01022019 -23.62180784 353.65386781 -23.61849976 352.29751587 C-23.62223757 350.85023174 -23.62683961 349.40294963 -23.6322304 347.95567071 C-23.6444595 343.98269611 -23.64420005 340.00980572 -23.64184165 336.0368166 C-23.64143347 331.75041723 -23.65247272 327.46404486 -23.66195679 323.17765808 C-23.67856681 314.78165185 -23.68406632 306.3856737 -23.68518154 297.98965241 C-23.68613193 291.16539343 -23.69024176 284.34114371 -23.69658279 277.51688766 C-23.71419451 258.16938469 -23.72342167 238.8219039 -23.72192185 219.47439285 C-23.72184193 218.43145161 -23.72176202 217.38851036 -23.72167969 216.31396484 C-23.72159793 215.26975055 -23.72151616 214.22553626 -23.72143193 213.14967911 C-23.72061884 196.22282733 -23.73976227 179.2960645 -23.76795642 162.36923845 C-23.79667676 144.9894128 -23.81049721 127.60963054 -23.80876887 110.22978055 C-23.80810472 100.47206387 -23.81360816 90.71444046 -23.83512497 80.95674515 C-23.85332548 72.64974283 -23.85769333 64.34287607 -23.84410612 56.03586246 C-23.83757101 51.79787711 -23.83747881 47.56015192 -23.85481262 43.32219124 C-23.87052434 39.44089892 -23.86769948 35.56007344 -23.85024436 31.67879264 C-23.84717027 30.27641424 -23.85082236 28.87400117 -23.86196451 27.47166367 C-23.92354386 19.17008568 -23.90690971 12.16380901 -17.93918741 5.78026164 C-12.35710217 0.78681821 -7.26335649 -0.00849251 0 0 Z " fill="#EF6B10" transform="translate(757.35107421875,487.70947265625)"/>
<path d="M0 0 C0.81664124 -0.0065712 1.63328247 -0.0131424 2.47467041 -0.01991272 C5.179485 -0.03963518 7.88424404 -0.05130724 10.58911133 -0.0612793 C11.5141427 -0.06535482 12.43917408 -0.06943035 13.39223671 -0.07362938 C18.29029746 -0.09448768 23.18833023 -0.10878928 28.08642578 -0.11816406 C33.13586883 -0.12921561 38.18486964 -0.16360172 43.23415661 -0.20333576 C47.12476905 -0.2295339 51.01527674 -0.23785884 54.90596962 -0.24144554 C56.76662488 -0.24630484 58.62727567 -0.25790005 60.48784447 -0.27648354 C63.09901893 -0.30093869 65.7090576 -0.29989832 68.3203125 -0.29296875 C69.08164993 -0.30577881 69.84298737 -0.31858887 70.62739563 -0.33178711 C76.70486431 -0.27332627 81.97482251 1.40403307 86.51571941 5.58898449 C91.92184945 11.7301741 92.27719625 17.14228203 92.25106812 24.94966125 C92.25559923 25.94059208 92.26013034 26.9315229 92.26479876 27.95248193 C92.27746978 31.27647401 92.27582063 34.60030282 92.27416992 37.92431641 C92.28015348 40.30613415 92.28695863 42.68794995 92.29452515 45.06976318 C92.31037258 50.87039944 92.31663431 56.67098607 92.3177499 62.47164289 C92.31870082 67.18780369 92.32281329 71.90395109 92.32915115 76.62010765 C92.34676153 89.99706781 92.35599039 103.37399589 92.35449021 116.75096772 C92.35441029 117.47187884 92.35433038 118.19278996 92.35424805 118.93554688 C92.35416629 119.65734027 92.35408452 120.37913367 92.35400029 121.1227996 C92.35318753 132.81831219 92.37232312 144.51369594 92.40052478 156.20917127 C92.42926664 168.22366922 92.44306435 180.23810437 92.44133723 192.25263757 C92.44067376 198.99560658 92.44614713 205.73844055 92.46769333 212.48137856 C92.48704905 218.82369632 92.48721813 225.16572885 92.47266006 231.50805664 C92.47056757 233.83485009 92.47529898 236.16166128 92.48738098 238.4884243 C92.50281648 241.66708238 92.49353566 244.84475487 92.4781189 248.02339172 C92.48840602 248.94217883 92.49869315 249.86096593 92.50929201 250.80759507 C92.42897903 258.31105362 90.51185117 263.59133408 85.23364258 268.98950195 C79.10059499 273.11751475 73.37333238 274.62897577 65.96630859 274.58105469 C64.83044312 274.59134956 64.83044312 274.59134956 63.67163086 274.60185242 C61.19340731 274.62000364 58.71582393 274.61629991 56.23754883 274.6105957 C54.49934181 274.61516308 52.76113659 274.62047031 51.02293396 274.6264801 C47.38923787 274.63538825 43.75576183 274.63301432 40.12207031 274.62304688 C35.48418983 274.61155942 30.847071 274.63177674 26.2092905 274.66096401 C22.6222813 274.67938115 19.03545279 274.67902263 15.44840813 274.67332649 C13.73931752 274.67317396 12.03021413 274.67916198 10.3211689 274.69161797 C-9.01111392 274.81268642 -9.01111392 274.81268642 -15.87425232 268.45628357 C-21.82665245 262.22248115 -22.31117075 255.61800781 -22.27705383 247.36001587 C-22.28087938 246.37639773 -22.28470493 245.39277959 -22.2886464 244.37935483 C-22.29895842 241.08610069 -22.29498761 237.79302147 -22.29101562 234.49975586 C-22.29536309 232.13749531 -22.30054636 229.77523617 -22.3065033 227.41297913 C-22.31990094 220.99769674 -22.32047108 214.58247324 -22.31794 208.16717958 C-22.31665639 204.15924492 -22.3192787 200.15131592 -22.32292747 196.14338303 C-22.32352266 195.47764369 -22.32411785 194.81190435 -22.32473108 194.1259911 C-22.32594286 192.77344915 -22.32715699 191.4209072 -22.32837345 190.06836526 C-22.33924564 177.38893368 -22.33708809 164.7095287 -22.33098861 152.03009562 C-22.32582036 140.43813283 -22.33707302 128.8462541 -22.35608683 117.25430794 C-22.37547306 105.3437407 -22.38371981 93.43321321 -22.37996358 81.5226301 C-22.37805264 74.83895187 -22.38079383 68.15533467 -22.39467812 61.47166824 C-22.40724683 55.18600553 -22.40532122 48.90051111 -22.39226723 42.614851 C-22.38989981 40.3090236 -22.39264202 38.00318439 -22.40089035 35.69737053 C-22.41134522 32.54737003 -22.40326679 29.39793553 -22.39057922 26.24795532 C-22.39795351 25.33763223 -22.40532779 24.42730914 -22.41292554 23.48940051 C-22.35733211 16.91892682 -21.48574542 11.07952857 -17.07885742 5.8996582 C-16.05791992 5.07788086 -16.05791992 5.07788086 -15.01635742 4.23950195 C-14.33573242 3.67360352 -13.65510742 3.10770508 -12.95385742 2.5246582 C-8.89209575 -0.30055909 -4.74356306 0.0165336 0 0 Z " fill="#EF6B10" transform="translate(361.016357421875,596.822998046875)"/>
<path d="M0 0 C0.77631271 -0.00671722 1.55262543 -0.01343445 2.35246277 -0.02035522 C4.91179865 -0.03930847 7.47087179 -0.04325838 10.03027344 -0.04541016 C11.81760769 -0.05184111 13.60494089 -0.0585697 15.39227295 -0.06558228 C19.13800495 -0.0775492 22.88364477 -0.08126382 26.62939453 -0.08007812 C31.41192917 -0.07987524 36.19386756 -0.10714846 40.97626114 -0.14162254 C44.66876906 -0.16394446 48.36113485 -0.16791401 52.05370331 -0.16685867 C53.81583455 -0.16920778 55.57797012 -0.17799214 57.34003448 -0.19352341 C76.41345945 -0.34586942 76.41345945 -0.34586942 84.47949219 6.18505859 C85.00671875 6.81798828 85.53394531 7.45091797 86.07714844 8.10302734 C86.62242187 8.72822266 87.16769531 9.35341797 87.72949219 9.99755859 C91.02122987 15.35005172 91.43307129 21.10865661 91.40034485 27.24691772 C91.40608317 28.40405114 91.40608317 28.40405114 91.41193742 29.58456099 C91.42220603 32.15377526 91.41828701 34.72276349 91.41430664 37.29199219 C91.41865653 39.14046942 91.4238406 40.98894484 91.42979431 42.8374176 C91.44316607 47.84779855 91.44376498 52.85810397 91.44123101 57.86849928 C91.44016002 62.05578644 91.44504797 66.24305841 91.44983643 70.43034232 C91.46092541 80.3114833 91.46137251 90.19258627 91.45532227 100.07373047 C91.44928279 110.25695482 91.46159425 120.440041 91.48289233 130.62324178 C91.50052327 139.3759017 91.50650732 148.12851769 91.50325459 156.88119471 C91.50144391 162.10446279 91.50405648 167.3276323 91.51796913 172.55088425 C91.53056703 177.46424191 91.52858476 182.3773846 91.51555824 187.29073906 C91.51319716 189.08980444 91.51591032 190.88888505 91.52418137 192.68793297 C91.61694237 214.4398071 91.61694237 214.4398071 83.74902344 222.85302734 C77.90288571 228.07482027 71.13144515 228.43826646 63.66235352 228.4675293 C62.92666138 228.47410049 62.19096924 228.48067169 61.4329834 228.48744202 C59.00838094 228.5070835 56.5838402 228.5188181 54.15917969 228.52880859 C53.32673925 228.53288412 52.49429882 228.53695965 51.63663292 228.54115868 C47.22903063 228.56198207 42.82145912 228.57629896 38.41381836 228.58569336 C33.88251026 228.59674039 29.35169555 228.6311311 24.82056141 228.67086506 C21.31761316 228.69712409 17.81478078 228.70539346 14.31174278 228.70897484 C12.64253094 228.71381808 10.97332348 228.72536683 9.30420876 228.74401283 C-10.64046509 228.95294408 -10.64046509 228.95294408 -17.75431824 222.59883118 C-23.40277056 216.66761283 -25.31476329 210.22666474 -25.24803162 202.17555237 C-25.25341715 201.38709032 -25.25880269 200.59862826 -25.26435143 199.78627342 C-25.27859359 197.15935614 -25.27153667 194.53294544 -25.2644043 191.90600586 C-25.27010982 190.01649573 -25.27707478 188.12698905 -25.28520203 186.23748779 C-25.30312818 181.11557787 -25.30196608 175.99383933 -25.29625964 170.87190747 C-25.29316709 166.59256253 -25.29926097 162.31325047 -25.30529839 158.03391021 C-25.31934015 147.93704833 -25.31778513 137.84027107 -25.30639648 127.7434082 C-25.29491466 117.33404186 -25.30899288 106.92493314 -25.33579296 96.51560074 C-25.35795791 87.57101649 -25.36458556 78.62651306 -25.35871655 69.6819033 C-25.3553478 64.34294746 -25.35775672 59.00415677 -25.37496758 53.66522408 C-25.39044729 48.6442885 -25.38646963 43.62373429 -25.36766243 38.60281372 C-25.36397945 36.76301585 -25.36707651 34.92318965 -25.37754822 33.08341789 C-25.39078008 30.5660033 -25.37919205 28.04984721 -25.36155701 25.53248596 C-25.37116201 24.80961051 -25.38076702 24.08673506 -25.39066309 23.34195429 C-25.29918235 16.96713772 -23.09691334 11.84278671 -18.89550781 7.04833984 C-18.24453125 6.50951172 -17.59355469 5.97068359 -16.92285156 5.41552734 C-16.27445313 4.86123047 -15.62605469 4.30693359 -14.95800781 3.73583984 C-10.14976236 0.42289605 -5.71725747 -0.00714464 0 0 Z " fill="#EE6B10" transform="translate(561.8603515625,642.70947265625)"/>
<path d="M0 0 C1.1376178 -0.01007584 1.1376178 -0.01007584 2.29821777 -0.02035522 C4.79743054 -0.03930241 7.29637424 -0.04325788 9.7956543 -0.04541016 C11.54054371 -0.05184089 13.28543204 -0.05856946 15.03031921 -0.06558228 C18.68609109 -0.07754721 22.34176853 -0.08126396 25.99755859 -0.08007812 C30.66809703 -0.0798751 35.33802586 -0.10716329 40.00841999 -0.14162254 C43.612531 -0.16392837 47.21649622 -0.16791452 50.82066917 -0.16685867 C52.54176113 -0.16920962 54.26285741 -0.17800451 55.983881 -0.19352341 C58.39853439 -0.2132566 60.81188534 -0.20731742 63.2265625 -0.1953125 C63.92865341 -0.20655151 64.63074432 -0.21779053 65.35411072 -0.22937012 C71.57610013 -0.15128944 76.65833303 2.00457968 81.33081055 6.03662109 C81.99983398 6.87386719 81.99983398 6.87386719 82.68237305 7.72802734 C83.37459961 8.56140625 83.37459961 8.56140625 84.08081055 9.41162109 C86.61344437 13.29122896 87.55720041 16.78777634 87.56806946 21.39363098 C87.57515427 22.39864151 87.58223907 23.40365204 87.58953857 24.43911743 C87.58706116 25.53066132 87.58458374 26.6222052 87.58203125 27.74682617 C87.58714218 28.90513443 87.59225311 30.06344269 87.59751892 31.2568512 C87.61142225 35.08713952 87.61045735 38.91724803 87.6081543 42.74755859 C87.61105865 44.73822667 87.61396774 46.72889481 87.61756104 48.71956176 C87.62864786 54.97899373 87.62909887 61.2383657 87.62304688 67.49780273 C87.61701255 73.94107953 87.62930606 80.38413765 87.65061694 86.82737714 C87.66827271 92.370671 87.6742279 97.91389552 87.6709792 103.45721644 C87.66917187 106.7628813 87.67307232 110.06835624 87.68569374 113.37400246 C87.69805472 117.06485357 87.69126746 120.75520163 87.6796875 124.44604492 C87.68733124 125.53151611 87.69497498 126.6169873 87.70285034 127.73535156 C87.65136843 135.17376711 86.92214612 141.09469359 82.05737305 147.04052734 C75.34164173 152.5352166 69.83639265 154.40105861 61.203125 154.4675293 C60.49523331 154.47410049 59.78734161 154.48067169 59.05799866 154.48744202 C56.72054932 154.50711421 54.38316414 154.51882543 52.0456543 154.52880859 C51.24414633 154.53288412 50.44263836 154.53695965 49.61684227 154.54115868 C45.37249385 154.56199585 41.12817751 154.57630641 36.88378906 154.58569336 C32.51713262 154.59673895 28.15098838 154.63112386 23.78451252 154.67086506 C20.41199345 154.69711085 17.03959485 154.70539233 13.66698265 154.70897484 C12.05834694 154.71382207 10.44971593 154.72538251 8.8411808 154.74401283 C-1.24631415 154.85356482 -9.54211194 154.65726833 -17.56762695 147.85302734 C-22.03455014 142.46644351 -23.80571376 138.25330687 -23.83979797 131.30767822 C-23.84695328 130.30404236 -23.85410858 129.30040649 -23.86148071 128.26635742 C-23.86416962 127.17121826 -23.86685852 126.0760791 -23.86962891 124.94775391 C-23.8762001 123.78959167 -23.8827713 122.63142944 -23.88954163 121.43817139 C-23.90926476 117.60249772 -23.92093464 113.76686317 -23.9309082 109.93115234 C-23.93498373 108.62089836 -23.93905926 107.31064438 -23.94325829 105.96068573 C-23.96229824 99.74140058 -23.97653159 93.52212721 -23.98487025 87.30281854 C-23.9946376 80.13741498 -24.0209486 72.97232076 -24.06137115 65.80702615 C-24.09158698 60.25951771 -24.10634429 54.71209768 -24.10965127 49.16450858 C-24.1119956 45.85538606 -24.12286559 42.54666895 -24.14611244 39.23761749 C-24.17046419 35.54178761 -24.16954553 31.84676449 -24.16259766 28.15087891 C-24.17540771 27.06383667 -24.18821777 25.97679443 -24.20141602 24.85681152 C-24.15035523 17.39371637 -22.95951192 12.0763135 -17.9465332 6.26708984 C-17.38836914 5.82107422 -16.83020508 5.37505859 -16.25512695 4.91552734 C-15.69954102 4.45404297 -15.14395508 3.99255859 -14.5715332 3.51708984 C-9.86194439 0.44263893 -5.51393992 -0.00705724 0 0 Z " fill="#EF6B10" transform="translate(180.692626953125,716.70947265625)"/>
<path d="M0 0 C0.33 0.66 0.66 1.32 1 2 C0 4 0 4 -2.23781872 5.31535053 C-5.35450796 7.21621378 -7.61632764 9.37046331 -10.19490051 11.95439148 C-10.69328247 12.45106459 -11.19166443 12.9477377 -11.70514888 13.45946151 C-13.36656677 15.11759673 -15.02075557 16.78275694 -16.67504883 18.44799805 C-17.86745969 19.64097329 -19.06031158 20.83350784 -20.25357056 22.02563477 C-23.48700364 25.25849438 -26.71423605 28.49748037 -29.94038987 31.737602 C-33.31472655 35.12444681 -36.69473326 38.50562331 -40.07414246 41.8874054 C-46.47057549 48.29005294 -52.86189344 54.69778136 -59.25138921 61.10735112 C-66.52673902 68.4050608 -73.80777318 75.69708776 -81.08929026 82.98864305 C-96.06586024 97.98611438 -111.03527778 112.99070738 -126 128 C-126.66 127.67 -127.32 127.34 -128 127 C-111.60921361 110.58588034 -95.21558527 94.17460399 -78.81854439 77.76673222 C-71.20563356 70.14865935 -63.59366478 62.52964959 -55.98388672 54.90844727 C-49.35323421 48.26784514 -42.72084127 41.62898718 -36.08632934 34.99224085 C-32.57164573 31.47625061 -29.05785558 27.95937758 -25.54614639 24.44041634 C-22.24384737 21.13135273 -18.93923431 17.82461826 -15.63279724 14.51968956 C-14.41689046 13.30350665 -13.20184664 12.0864603 -11.98771286 10.86850739 C-10.3354151 9.21126559 -8.68009723 7.55710163 -7.0239563 5.90370178 C-5.63297069 4.51133348 -5.63297069 4.51133348 -4.21388435 3.09083652 C-2 1 -2 1 0 0 Z " fill="#F77B06" transform="translate(389,347)"/>
<path d="M0 0 C0.66 0.33 1.32 0.66 2 1 C-1.70485339 5.5384454 -5.51310481 9.43062222 -9.96484375 13.23046875 C-12.03945787 15.0343079 -14.0324356 16.89263413 -16 18.8125 C-16.86625 19.65748047 -16.86625 19.65748047 -17.75 20.51953125 C-19.21504284 21.93175829 -19.21504284 21.93175829 -19 24 C-20.46875 25.2265625 -20.46875 25.2265625 -22.5 26.625 C-27.1484754 29.99000255 -31.02472837 33.88190424 -35 38 C-36.66373498 39.6695932 -38.33099087 41.3356791 -40 43 C-41.32959813 44.32925602 -42.65900941 45.65869894 -43.98828125 46.98828125 C-47.9921875 50.9921875 -51.99609375 54.99609375 -56 59 C-56 55.3614829 -54.91718095 54.56554737 -52.44616699 52.07290649 C-51.92252563 51.56005096 -51.39888428 51.04719543 -50.859375 50.51879883 C-50.31317505 49.9721608 -49.7669751 49.42552277 -49.20422363 48.86231995 C-47.39316791 47.05335785 -45.57170985 45.25525854 -43.75 43.45703125 C-42.49381435 42.20643949 -41.23828847 40.95518468 -39.98339844 39.70329285 C-36.67568168 36.40704105 -33.35905526 33.11989625 -30.04052734 29.83453369 C-26.6570341 26.48170563 -23.28199721 23.12038937 -19.90625 19.75976562 C-13.27910736 13.16481627 -6.64252642 6.57945179 0 0 Z " fill="#F17609" transform="translate(667,360)"/>
<path d="M0 0 C0.67019165 -0.00175232 1.3403833 -0.00350464 2.03088379 -0.00531006 C4.2541765 -0.0097228 6.47739002 -0.00679063 8.70068359 -0.00341797 C10.24807755 -0.00409165 11.7954714 -0.00506221 13.34286499 -0.00631714 C16.59284468 -0.00779372 19.84279693 -0.00564259 23.09277344 -0.00097656 C27.24190293 0.0046922 31.39096733 0.00145969 35.54009438 -0.00454903 C38.74014771 -0.00818013 41.9401859 -0.00700389 45.14023972 -0.00442123 C46.66872541 -0.00375752 48.19721252 -0.00456083 49.72569656 -0.00690079 C64.43752976 -0.02446436 64.43752976 -0.02446436 71.47412109 1.12939453 C71.47412109 1.45939453 71.47412109 1.78939453 71.47412109 2.12939453 C70.09469078 2.13819389 70.09469078 2.13819389 68.68739319 2.14717102 C59.99278668 2.20523368 51.29843336 2.27738778 42.60407352 2.36510944 C38.134912 2.409711 33.66583949 2.44898924 29.1965332 2.47583008 C24.87805813 2.50196548 20.55992749 2.54243916 16.24166679 2.5925808 C14.59961694 2.60918062 12.9575076 2.62073755 11.31538582 2.62700844 C2.9011597 2.66237208 -4.65673657 2.75128695 -12.52587891 6.12939453 C-8.34308165 0.6917581 -6.83256017 0.00447413 0 0 Z " fill="#000D55" transform="translate(176.52587890625,714.87060546875)"/>
<path d="M0 0 C0.66 0.33 1.32 0.66 2 1 C0.0345617 3.6205844 -1.76181085 5.81822407 -4.375 7.8125 C-6.778638 9.81553166 -8.20667486 11.54264826 -10 14.0625 C-12.35757171 17.33287511 -14.39780061 19.10410559 -18 21 C-19.36984198 22.29579647 -20.7151049 23.61992749 -22 25 C-22.66 24.67 -23.32 24.34 -24 24 C-16.08 16.08 -8.16 8.16 0 0 Z " fill="#081351" transform="translate(637,531)"/>
<path d="M0 0 C0.66 0 1.32 0 2 0 C2 0.66 2 1.32 2 2 C2.5887793 2.26280762 3.17755859 2.52561523 3.78417969 2.79638672 C6.10339241 4.05616181 7.60949403 5.38004021 9.453125 7.2578125 C10.071875 7.88300781 10.690625 8.50820313 11.328125 9.15234375 C11.96234375 9.80332031 12.5965625 10.45429688 13.25 11.125 C13.8996875 11.78371094 14.549375 12.44242187 15.21875 13.12109375 C16.81711727 14.74296643 18.41061897 16.3693281 20 18 C19.34 18.66 18.68 19.32 18 20 C15.17937758 17.23733252 12.36995786 14.46353947 9.5625 11.6875 C8.76005859 10.90181641 7.95761719 10.11613281 7.13085938 9.30664062 C6.36708984 8.54931641 5.60332031 7.79199219 4.81640625 7.01171875 C4.10943604 6.31522217 3.40246582 5.61872559 2.67407227 4.90112305 C1 3 1 3 0 0 Z " fill="#D56B12" transform="translate(682,256)"/>
<path d="M0 0 C0.33 0 0.66 0 1 0 C1 7.92 1 15.84 1 24 C-1 23 -1 23 -1.63037109 21.20581055 C-2.00852663 18.9491162 -2.0420636 16.98904302 -1.9140625 14.70703125 C-1.87023437 13.91232422 -1.82640625 13.11761719 -1.78125 12.29882812 C-1.7296875 11.47833984 -1.678125 10.65785156 -1.625 9.8125 C-1.55925781 8.56436523 -1.55925781 8.56436523 -1.4921875 7.29101562 C-1.13070211 1.13070211 -1.13070211 1.13070211 0 0 Z " fill="#011252" transform="translate(733,829)"/>
<path d="M0 0 C0.66 0 1.32 0 2 0 C1.38605929 3.27300996 0.75695364 6.54292425 0.125 9.8125 C-0.04902344 10.74126953 -0.22304688 11.67003906 -0.40234375 12.62695312 C-0.57636719 13.51962891 -0.75039063 14.41230469 -0.9296875 15.33203125 C-1.08679199 16.15421143 -1.24389648 16.9763916 -1.40576172 17.82348633 C-2 20 -2 20 -4 23 C-3.9278125 21.87980469 -3.855625 20.75960938 -3.78125 19.60546875 C-3.68745044 18.13281566 -3.59370317 16.66015923 -3.5 15.1875 C-3.45230469 14.44951172 -3.40460937 13.71152344 -3.35546875 12.95117188 C-3.16609387 9.96175412 -3 6.99625426 -3 4 C-2.34 4 -1.68 4 -1 4 C-0.67 2.68 -0.34 1.36 0 0 Z " fill="#F1750A" transform="translate(908,267)"/>
<path d="M0 0 C0.33 0.99 0.66 1.98 1 3 C0.38511719 3.53109375 -0.22976563 4.0621875 -0.86328125 4.609375 C-1.67152344 5.31578125 -2.47976563 6.0221875 -3.3125 6.75 C-4.11300781 7.44609375 -4.91351562 8.1421875 -5.73828125 8.859375 C-7.77965601 10.79145335 -9.39892851 12.69943126 -11 15 C-11.99 14.67 -12.98 14.34 -14 14 C-9.38 9.38 -4.76 4.76 0 0 Z " fill="#11184F" transform="translate(660,508)"/>
<path d="M0 0 C6.03331362 4.98404168 11.5184171 10.41915303 17 16 C14 16 14 16 12.1328125 14.42578125 C11.47023438 13.72839844 10.80765625 13.03101563 10.125 12.3125 C9.07505859 11.21808594 9.07505859 11.21808594 8.00390625 10.1015625 C7.34261719 9.40804688 6.68132813 8.71453125 6 8 C5.02370472 7.05951017 4.04510058 6.12140026 3.0625 5.1875 C1 3 1 3 0 0 Z " fill="#000F57" transform="translate(704,280)"/>
<path d="M0 0 C0.33 0.66 0.66 1.32 1 2 C-0.16290805 5.48872415 -1.13967609 6.09976864 -4.0625 8.1875 C-4.79597656 8.71730469 -5.52945313 9.24710938 -6.28515625 9.79296875 C-6.85105469 10.19128906 -7.41695312 10.58960938 -8 11 C-8.66 10.67 -9.32 10.34 -10 10 C-9.38125 9.7525 -8.7625 9.505 -8.125 9.25 C-5.57496075 7.74997691 -5.23777652 6.6302751 -4 4 C-2.70529025 2.62913085 -1.37849103 1.28659163 0 0 Z " fill="#231E4B" transform="translate(575,593)"/>
<path d="M0 0 C0.33 0.66 0.66 1.32 1 2 C-1.31 4.64 -3.62 7.28 -6 10 C-6.99 9.67 -7.98 9.34 -9 9 C-6.03 6.03 -3.06 3.06 0 0 Z " fill="#191A4D" transform="translate(253,621)"/>
<path d="M0 0 C0.33 0.66 0.66 1.32 1 2 C-0.12104533 3.31587941 -1.24696965 4.62760353 -2.375 5.9375 C-3.00148438 6.66839844 -3.62796875 7.39929688 -4.2734375 8.15234375 C-6 10 -6 10 -8 11 C-7.43040847 7.37386801 -6.07625466 5.74482259 -3.4375 3.25 C-2.79683594 2.63640625 -2.15617188 2.0228125 -1.49609375 1.390625 C-1.00238281 0.93171875 -0.50867188 0.4728125 0 0 Z " fill="#13194F" transform="translate(605,563)"/>
<path d="M0 0 C3.54433654 1.41773462 4.33806119 2.67612238 6 6 C8.0335948 7.26804566 8.0335948 7.26804566 10 8 C9.34 8.66 8.68 9.32 8 10 C6.66070495 8.71451591 5.32871357 7.42141845 4 6.125 C2.88625 5.04605469 2.88625 5.04605469 1.75 3.9453125 C0 2 0 2 0 0 Z " fill="#DD6C0F" transform="translate(845,419)"/>
<path d="M0 0 C3.23861303 1.44424635 5.61969163 3.25772247 8.25 5.625 C8.95640625 6.25664063 9.6628125 6.88828125 10.390625 7.5390625 C10.92171875 8.02117188 11.4528125 8.50328125 12 9 C11.67 9.66 11.34 10.32 11 11 C6.20160771 8.555536 3.3777493 7.01969296 1 2 C0.67 1.34 0.34 0.68 0 0 Z " fill="#0A1252" transform="translate(182,648)"/>
<path d="M0 0 C3.43595166 1.52708963 6.11912454 3.59927045 9 6 C8.01 6.66 7.02 7.32 6 8 C4.99403703 7.0479279 3.99538437 6.08812654 3 5.125 C2.443125 4.59132813 1.88625 4.05765625 1.3125 3.5078125 C0 2 0 2 0 0 Z " fill="#DF6C0F" transform="translate(823,397)"/>
<path d="M0 0 C-2.6860286 1.79068573 -4.6626589 2.66055791 -7.6875 3.625 C-8.49574219 3.88539063 -9.30398437 4.14578125 -10.13671875 4.4140625 C-10.75160156 4.60742188 -11.36648437 4.80078125 -12 5 C-7.85328399 -0.39073081 -6.73524099 -1.31776454 0 0 Z " fill="#091254" transform="translate(176,716)"/>
<path d="M0 0 C0 3.99476331 -1.28869085 5.1421336 -4 8 C-6.75 9.3125 -6.75 9.3125 -9 10 C-8.06409496 8.8944811 -7.12620142 7.79064547 -6.1875 6.6875 C-5.66542969 6.07261719 -5.14335937 5.45773437 -4.60546875 4.82421875 C-3.12827531 3.14575321 -1.59960869 1.56117966 0 0 Z " fill="#2D2148" transform="translate(325,549)"/>
<path d="M0 0 C0 3.57575896 -1.08840607 5.05295935 -3 8 C-4.32 7.67 -5.64 7.34 -7 7 C-4.69 4.69 -2.38 2.38 0 0 Z " fill="#1A1B4C" transform="translate(592,576)"/>
<path d="M0 0 C0.5534764 2.07553648 1 3.84365964 1 6 C0.34 6 -0.32 6 -1 6 C-1.33 6.66 -1.66 7.32 -2 8 C-2.33 7.34 -2.66 6.68 -3 6 C-3.66 5.67 -4.32 5.34 -5 5 C-3.35 3.35 -1.7 1.7 0 0 Z " fill="#F6760A" transform="translate(223,512)"/>
</svg>
